<svg xmlns="http://www.w3.org/2000/svg" xmlns:xlink="http://www.w3.org/1999/xlink" width="92" height="82" viewBox="0 0 92 82">
  <defs>
    <linearGradient id="linear-gradient" x1="0.879" y1="0.758" x2="0.138" y2="0.163" gradientUnits="objectBoundingBox">
      <stop offset="0" stop-color="#fff"/>
      <stop offset="1" stop-color="#e8e8e8"/>
    </linearGradient>
    <linearGradient id="linear-gradient-2" x1="0.121" y1="0.758" x2="0.862" y2="0.163" xlink:href="#linear-gradient"/>
    <clipPath id="clip-path">
      <path id="path5601" d="M0-682.665H52.326v52.326H0Z" transform="translate(0 682.665)" fill="#fe5d39"/>
    </clipPath>
    <clipPath id="clip-ic1">
      <rect width="92" height="82"/>
    </clipPath>
  </defs>
  <g id="ic1" clip-path="url(#clip-ic1)">
    <circle id="Ellipse_132" data-name="Ellipse 132" cx="34.5" cy="34.5" r="34.5" transform="translate(0 1)" fill="url(#linear-gradient)"/>
    <circle id="Ellipse_133" data-name="Ellipse 133" cx="10.5" cy="10.5" r="10.5" transform="matrix(0.616, 0.788, -0.788, 0.616, 81.317, 55.261)" fill="url(#linear-gradient-2)"/>
    <g id="g5595" transform="translate(25 706.108)">
      <g id="g5597" transform="translate(0 -682.665)">
        <g id="g5599" clip-path="url(#clip-path)">
          <g id="g5605" transform="translate(0.766 23.287)">
            <path id="path5607" d="M-195.134,0h-6.615a9.6,9.6,0,0,0-9.583,9.584,9.6,9.6,0,0,0,9.583,9.583h26.089" transform="translate(211.333)" fill="none" stroke="#ff512a" stroke-linecap="round" stroke-linejoin="round" stroke-miterlimit="10" stroke-width="1.2"/>
          </g>
          <g id="g5609" transform="translate(16.174 10.252)">
            <path id="path5611" d="M0,0H25.8a6.518,6.518,0,0,1,0,13.036H19.187" fill="none" stroke="#ff512a" stroke-linecap="round" stroke-linejoin="round" stroke-miterlimit="10" stroke-width="1.2"/>
          </g>
          <g id="g5613" transform="translate(22.954 39.389)">
            <path id="path5615" d="M0,0H12.99" fill="none" stroke="#ff512a" stroke-linecap="round" stroke-linejoin="round" stroke-miterlimit="10" stroke-width="1.2"/>
          </g>
          <g id="g5617" transform="translate(3.832 26.353)">
            <path id="path5619" d="M-158.2,0h-6.615a6.525,6.525,0,0,0-6.517,6.517,6.525,6.525,0,0,0,6.517,6.518h9.027" transform="translate(171.333)" fill="none" stroke="#ff512a" stroke-linecap="round" stroke-linejoin="round" stroke-miterlimit="10" stroke-width="1.2"/>
          </g>
          <g id="g5621" transform="translate(16.274 7.186)">
            <path id="path5623" d="M0,0H25.7a9.584,9.584,0,0,1,0,19.168H19.087" fill="none" stroke="#ff512a" stroke-linecap="round" stroke-linejoin="round" stroke-miterlimit="10" stroke-width="1.2"/>
          </g>
          <g id="g5625" transform="translate(0.766 0.767)">
            <path id="path5627" d="M-57.489-7.415a7.78,7.78,0,0,1,3.044-.616A7.816,7.816,0,0,1-46.629-.214c0,4.653-5.8,10.119-7.409,11.542a.614.614,0,0,1-.814,0c-1.607-1.422-7.42-6.889-7.409-11.542a7.819,7.819,0,0,1,1.916-5.122" transform="translate(62.261 8.031)" fill="none" stroke="#ff512a" stroke-linecap="round" stroke-linejoin="round" stroke-miterlimit="10" stroke-width="1.2"/>
          </g>
          <g id="g5629" transform="translate(4.534 4.67)">
            <path id="path5631" d="M-97.555-48.777a4.049,4.049,0,0,1-4.049,4.049,4.049,4.049,0,0,1-4.049-4.049,4.049,4.049,0,0,1,4.049-4.049A4.049,4.049,0,0,1-97.555-48.777Z" transform="translate(105.653 52.827)" fill="none" stroke="#ff512a" stroke-linecap="round" stroke-linejoin="round" stroke-miterlimit="10" stroke-width="1.2"/>
          </g>
          <g id="g5633" transform="translate(35.927 32.047)">
            <path id="path5635" d="M-188.316-94.158c0,4.653-5.8,10.119-7.409,11.542a.614.614,0,0,1-.814,0c-1.607-1.422-7.42-6.889-7.409-11.542a7.823,7.823,0,0,1,7.816-7.816A7.816,7.816,0,0,1-188.316-94.158Z" transform="translate(203.949 101.974)" fill="none" stroke="#ff512a" stroke-linecap="round" stroke-linejoin="round" stroke-miterlimit="10" stroke-width="1.2"/>
          </g>
          <g id="g5637" transform="translate(39.694 35.95)">
            <path id="path5639" d="M-97.555-48.777a4.049,4.049,0,0,1-4.049,4.049,4.049,4.049,0,0,1-4.049-4.049,4.049,4.049,0,0,1,4.049-4.049A4.049,4.049,0,0,1-97.555-48.777Z" transform="translate(105.653 52.827)" fill="none" stroke="#ff512a" stroke-linecap="round" stroke-linejoin="round" stroke-miterlimit="10" stroke-width="1.2"/>
          </g>
          <g id="g5641" transform="translate(18.498 30.788)">
            <path id="path5643" d="M-36.934-.776V1.7a1.534,1.534,0,0,1-1.533,1.533A1.534,1.534,0,0,1-40,1.7V-.84" transform="translate(40 0.84)" fill="none" stroke="#ff512a" stroke-linecap="round" stroke-linejoin="round" stroke-miterlimit="10" stroke-width="1.2"/>
          </g>
          <g id="g5645" transform="translate(30.762 30.789)">
            <path id="path5647" d="M-36.934,0V2.54a1.534,1.534,0,0,1-1.533,1.533A1.534,1.534,0,0,1-40,2.54V.064" transform="translate(40)" fill="none" stroke="#ff512a" stroke-linecap="round" stroke-linejoin="round" stroke-miterlimit="10" stroke-width="1.2"/>
          </g>
          <g id="g5649" transform="translate(16.965 14.603)">
            <path id="path5651" d="M-196.981-195.75h-14.308a2.044,2.044,0,0,1-2.044-2.044v-12.162A2.044,2.044,0,0,1-211.289-212h14.308a2.044,2.044,0,0,1,2.044,2.044v12.162A2.044,2.044,0,0,1-196.981-195.75Z" transform="translate(213.333 211.999)" fill="none" stroke="#ff512a" stroke-linecap="round" stroke-linejoin="round" stroke-miterlimit="10" stroke-width="1.2"/>
          </g>
          <g id="g5653" transform="translate(16.965 23.161)">
            <path id="path5655" d="M0,0H18.4" fill="none" stroke="#ff512a" stroke-linecap="round" stroke-linejoin="round" stroke-miterlimit="10" stroke-width="1.2"/>
          </g>
          <g id="g5657" transform="translate(20.031 26.241)">
            <path id="path5659" d="M-9.233-18.467A.767.767,0,0,1-10-19.233.767.767,0,0,1-9.233-20a.767.767,0,0,1,.766.766.767.767,0,0,1-.766.766" transform="translate(10 20)" fill="#fe5d39"/>
          </g>
          <g id="g5661" transform="translate(30.762 26.241)">
            <path id="path5663" d="M-9.233-18.467A.767.767,0,0,1-10-19.233.767.767,0,0,1-9.233-20a.767.767,0,0,1,.766.766.767.767,0,0,1-.766.766" transform="translate(10 20)" fill="#fe5d39"/>
          </g>
          <g id="g5665" transform="translate(23.864 27.007)">
            <path id="path5667" d="M0,0H4.6" fill="none" stroke="#ff512a" stroke-linecap="round" stroke-linejoin="round" stroke-miterlimit="10" stroke-width="1.2"/>
          </g>
        </g>
      </g>
    </g>
  </g>
</svg>
