<svg xmlns="http://www.w3.org/2000/svg" xmlns:xlink="http://www.w3.org/1999/xlink" width="92" height="82" viewBox="0 0 92 82">
  <defs>
    <linearGradient id="linear-gradient" x1="0.879" y1="0.758" x2="0.138" y2="0.163" gradientUnits="objectBoundingBox">
      <stop offset="0" stop-color="#fff"/>
      <stop offset="1" stop-color="#e8e8e8"/>
    </linearGradient>
    <linearGradient id="linear-gradient-2" x1="0.121" y1="0.758" x2="0.862" y2="0.163" xlink:href="#linear-gradient"/>
    <clipPath id="clip-ic2">
      <rect width="92" height="82"/>
    </clipPath>
  </defs>
  <g id="ic2" clip-path="url(#clip-ic2)">
    <circle id="Ellipse_132" data-name="Ellipse 132" cx="34.5" cy="34.5" r="34.5" transform="translate(0 1)" fill="url(#linear-gradient)"/>
    <circle id="Ellipse_133" data-name="Ellipse 133" cx="10.5" cy="10.5" r="10.5" transform="matrix(0.616, 0.788, -0.788, 0.616, 81.317, 55.261)" fill="url(#linear-gradient-2)"/>
    <g id="Page-1" transform="translate(33.336 20.237)">
      <g id="_010---mobile-alarm" data-name="010---mobile-alarm" transform="translate(0 0)">
        <path id="Shape" d="M3.184,47.763H25.474a3.184,3.184,0,0,0,3.184-3.184v-6.44a4.783,4.783,0,0,0,3.909-3.909H38.21a.8.8,0,0,0,.8-.8V31.046a3.184,3.184,0,0,0-2.388-3.071v-8.87a8.764,8.764,0,0,0-5.853-8.251,3.167,3.167,0,0,0-2.108-4.373v-3.3A3.184,3.184,0,0,0,25.474,0H3.184A3.184,3.184,0,0,0,0,3.184V44.579A3.184,3.184,0,0,0,3.184,47.763Zm22.289-1.592H3.184a1.592,1.592,0,0,1-1.592-1.592V43.34a3.152,3.152,0,0,0,1.592.443H25.474a3.152,3.152,0,0,0,1.592-.443v1.239A1.592,1.592,0,0,1,25.474,46.171Zm2.388-9.553A3.184,3.184,0,0,1,24.79,34.23h6.142A3.184,3.184,0,0,1,27.862,36.618Zm9.553-5.572v1.592H18.309V31.046A1.592,1.592,0,0,1,19.9,29.454H35.822A1.592,1.592,0,0,1,37.414,31.046ZM35.026,19.105v8.757H20.7V19.105a7.164,7.164,0,0,1,14.329,0ZM29.454,9.553a1.575,1.575,0,0,1-.284.9,7.954,7.954,0,0,0-2.616,0,1.575,1.575,0,0,1-.284-.9,1.592,1.592,0,0,1,3.184,0Zm-9-7.96L19.43,2.681a1.592,1.592,0,0,1-1.161.5H10.388a1.6,1.6,0,0,1-1.161-.5L8.206,1.592ZM1.592,3.184A1.592,1.592,0,0,1,3.184,1.592H6.024L8.066,3.77a3.2,3.2,0,0,0,2.323,1.006h7.881A3.193,3.193,0,0,0,20.592,3.77l2.042-2.178h2.839a1.592,1.592,0,0,1,1.592,1.592v3.3a3.167,3.167,0,0,0-2.108,4.373,8.764,8.764,0,0,0-5.853,8.251v8.87a3.184,3.184,0,0,0-2.388,3.071v2.388a.8.8,0,0,0,.8.8h5.644a4.783,4.783,0,0,0,3.909,3.909V40.6a1.592,1.592,0,0,1-1.592,1.592H3.184A1.592,1.592,0,0,1,1.592,40.6Z" transform="translate(0 0)" fill="#58be76"/>
        <path id="Shape-2" data-name="Shape" d="M7.8,29.941a.8.8,0,0,0,.8-.8,9.563,9.563,0,0,1,9.553-9.553.8.8,0,0,0,0-1.592A11.157,11.157,0,0,0,7,29.145.8.8,0,0,0,7.8,29.941Z" transform="translate(-1.428 -3.671)" fill="#58be76"/>
        <path id="Shape-3" data-name="Shape" d="M18.96,22A7.969,7.969,0,0,0,11,29.96a.8.8,0,1,0,1.592,0,6.376,6.376,0,0,1,6.368-6.368.8.8,0,1,0,0-1.592Z" transform="translate(-2.243 -4.487)" fill="#58be76"/>
        <path id="Shape-4" data-name="Shape" d="M19.776,26A4.781,4.781,0,0,0,15,30.776a.8.8,0,1,0,1.592,0,3.184,3.184,0,0,1,3.184-3.184.8.8,0,1,0,0-1.592Z" transform="translate(-3.059 -5.303)" fill="#58be76"/>
        <path id="Shape-5" data-name="Shape" d="M43.8,55.349a.8.8,0,1,0,0,1.592A11.157,11.157,0,0,0,54.941,45.8a.8.8,0,0,0-1.592,0A9.563,9.563,0,0,1,43.8,55.349Z" transform="translate(-8.77 -9.178)" fill="#58be76"/>
        <path id="Shape-6" data-name="Shape" d="M43.8,52.164a.8.8,0,1,0,0,1.592,7.969,7.969,0,0,0,7.96-7.96.8.8,0,0,0-1.592,0A6.376,6.376,0,0,1,43.8,52.164Z" transform="translate(-8.77 -9.178)" fill="#58be76"/>
        <path id="Shape-7" data-name="Shape" d="M46.98,45.8A3.184,3.184,0,0,1,43.8,48.98a.8.8,0,1,0,0,1.592A4.781,4.781,0,0,0,48.572,45.8a.8.8,0,0,0-1.592,0Z" transform="translate(-8.77 -9.178)" fill="#58be76"/>
      </g>
    </g>
  </g>
</svg>
