<svg xmlns="http://www.w3.org/2000/svg" xmlns:xlink="http://www.w3.org/1999/xlink" width="92" height="82" viewBox="0 0 92 82">
  <defs>
    <linearGradient id="linear-gradient" x1="0.879" y1="0.758" x2="0.138" y2="0.163" gradientUnits="objectBoundingBox">
      <stop offset="0" stop-color="#fff"/>
      <stop offset="1" stop-color="#e8e8e8"/>
    </linearGradient>
    <linearGradient id="linear-gradient-2" x1="0.121" y1="0.758" x2="0.862" y2="0.163" xlink:href="#linear-gradient"/>
    <clipPath id="clip-ic3">
      <rect width="92" height="82"/>
    </clipPath>
  </defs>
  <g id="ic3" clip-path="url(#clip-ic3)">
    <circle id="Ellipse_132" data-name="Ellipse 132" cx="34.5" cy="34.5" r="34.5" transform="translate(0 1)" fill="url(#linear-gradient)"/>
    <circle id="Ellipse_133" data-name="Ellipse 133" cx="10.5" cy="10.5" r="10.5" transform="matrix(0.616, 0.788, -0.788, 0.616, 81.317, 55.261)" fill="url(#linear-gradient-2)"/>
    <path id="family_1_" data-name="family (1)" d="M1.731,55.88v6.164a.85.85,0,0,1-1.7,0V55.88a.85.85,0,1,1,1.7,0ZM14.043,41.6a.85.85,0,0,1-.85.83A5.151,5.151,0,0,1,8.85,39.858H7.395a5.67,5.67,0,0,0-5.663,5.663V51.27H6.589V50.035a.85.85,0,1,1,1.7,0V62.044a.85.85,0,0,1-1.7,0V52.97H.85a.849.849,0,0,1-.819-1.076V45.521a7.372,7.372,0,0,1,7.364-7.364H8.706l.622-1.877a7.382,7.382,0,0,1-3.6-6.33v-9.46a5.408,5.408,0,0,1,5.4-5.4H22.773a.85.85,0,0,1,.85.85V18.4a7.448,7.448,0,0,1-7.439,7.439H7.431v4.115a5.664,5.664,0,0,0,6.179,5.64,5.725,5.725,0,0,0,5.148-5.7V28.242a.85.85,0,0,1,1.7,0v1.648a7.458,7.458,0,0,1-3.2,6.13l.807,2.678a.85.85,0,1,1-1.628.491l-.71-2.358a7.4,7.4,0,0,1-4.838.15l-.632,1.908a3.453,3.453,0,0,0,2.959,1.842.85.85,0,0,1,.83.87ZM7.431,24.136h8.754A5.745,5.745,0,0,0,21.923,18.4V16.79H11.132a3.706,3.706,0,0,0-3.7,3.7ZM46.39,38.664a.85.85,0,0,0-.635,1.578,5.649,5.649,0,0,1,3.556,5.264v1.979a.85.85,0,1,0,1.7,0V45.505A7.342,7.342,0,0,0,46.39,38.664Zm-4.5,1.106a.851.851,0,0,1-.814-.605l-.711-2.359a7.405,7.405,0,0,1-4.845.144l-.634,1.915a3.459,3.459,0,0,0,2.964,1.845.85.85,0,0,1-.02,1.7,5.164,5.164,0,0,1-4.641-3.158.85.85,0,0,1-.024-.6l.8-2.4a7.454,7.454,0,0,1-3.6-6.393V26.574a.85.85,0,0,1,.861-.85A32.8,32.8,0,0,0,42.07,24.031a2.3,2.3,0,0,1,3.036,2.178v3.706A7.394,7.394,0,0,1,41.9,36l.806,2.676A.851.851,0,0,1,41.894,39.77Zm1.511-9.855V26.209a.591.591,0,0,0-.248-.485c-.4-.286-.446-.018-2.878.61a34.561,34.561,0,0,1-8.217,1.09v2.431a5.734,5.734,0,0,0,5.155,5.709A5.672,5.672,0,0,0,43.405,29.916ZM29.476,54.268l.771,2.416a.85.85,0,0,1-1.62.517l-.713-2.232a7.847,7.847,0,0,1-4.806,0l-.625,1.92a3.382,3.382,0,0,0,2.937,1.883.85.85,0,0,1-.021,1.7,5.074,5.074,0,0,1-4.366-2.684H19.342a3.4,3.4,0,0,0-3.4,3.4v.85a.85.85,0,1,1-1.7,0v-.85a5.107,5.107,0,0,1,5.1-5.1h1.614l.592-1.817a7.862,7.862,0,0,1,5.825-14.43V25.724a10.587,10.587,0,0,1,21.175,0v8.73a.85.85,0,1,1-1.7,0v-8.73a8.887,8.887,0,0,0-17.774,0V40.479A7.862,7.862,0,0,1,29.476,54.268Zm2.193-6.784a6.164,6.164,0,1,0-6.164,6.164A6.171,6.171,0,0,0,31.67,47.484Zm2.307,9.159a.85.85,0,0,0-.77,1.516,3.388,3.388,0,0,1,1.864,3.035v.85a.85.85,0,1,0,1.7,0v-.85a5.081,5.081,0,0,0-2.794-4.551ZM50.162,51.27H44.423V50.035a.85.85,0,1,0-1.7,0V62.044a.85.85,0,1,0,1.7,0V52.97h4.889v9.074a.85.85,0,1,0,1.7,0V52.12A.85.85,0,0,0,50.162,51.27Z" transform="translate(26.216 8.911)" fill="#febf12"/>
  </g>
</svg>
